<mxfile host="app.diagrams.net" modified="2024-02-02T09:44:38.639Z" agent="Mozilla/5.0 (Windows NT 10.0; Win64; x64) AppleWebKit/537.36 (KHTML, like Gecko) Chrome/121.0.0.0 Safari/537.36" etag="18huPWMHddIbqF29VNT1" version="23.1.1" type="device">
  <diagram id="C5RBs43oDa-KdzZeNtuy" name="Page-1">
    <mxGraphModel dx="2261" dy="746" grid="1" gridSize="10" guides="1" tooltips="1" connect="1" arrows="1" fold="1" page="1" pageScale="1" pageWidth="827" pageHeight="1169" math="0" shadow="0">
      <root>
        <mxCell id="WIyWlLk6GJQsqaUBKTNV-0" />
        <mxCell id="WIyWlLk6GJQsqaUBKTNV-1" parent="WIyWlLk6GJQsqaUBKTNV-0" />
        <mxCell id="jEUoH8jmG11MuaHVF3z4-11" style="edgeStyle=orthogonalEdgeStyle;rounded=0;orthogonalLoop=1;jettySize=auto;html=1;entryX=0;entryY=0.5;entryDx=0;entryDy=0;endArrow=none;endFill=0;" parent="WIyWlLk6GJQsqaUBKTNV-1" source="jEUoH8jmG11MuaHVF3z4-1" target="jEUoH8jmG11MuaHVF3z4-9" edge="1">
          <mxGeometry relative="1" as="geometry" />
        </mxCell>
        <mxCell id="YG7jVMgY6gMOqJF1la5D-3" value="N" style="edgeLabel;html=1;align=center;verticalAlign=middle;resizable=0;points=[];" vertex="1" connectable="0" parent="jEUoH8jmG11MuaHVF3z4-11">
          <mxGeometry x="0.2" y="-1" relative="1" as="geometry">
            <mxPoint as="offset" />
          </mxGeometry>
        </mxCell>
        <mxCell id="jEUoH8jmG11MuaHVF3z4-14" style="edgeStyle=orthogonalEdgeStyle;rounded=0;orthogonalLoop=1;jettySize=auto;html=1;entryX=1;entryY=0.5;entryDx=0;entryDy=0;endArrow=none;endFill=0;" parent="WIyWlLk6GJQsqaUBKTNV-1" source="jEUoH8jmG11MuaHVF3z4-1" target="jEUoH8jmG11MuaHVF3z4-5" edge="1">
          <mxGeometry relative="1" as="geometry" />
        </mxCell>
        <mxCell id="YG7jVMgY6gMOqJF1la5D-0" value="N" style="edgeStyle=orthogonalEdgeStyle;rounded=0;orthogonalLoop=1;jettySize=auto;html=1;" edge="1" parent="WIyWlLk6GJQsqaUBKTNV-1" source="jEUoH8jmG11MuaHVF3z4-1" target="jEUoH8jmG11MuaHVF3z4-5">
          <mxGeometry relative="1" as="geometry" />
        </mxCell>
        <mxCell id="jEUoH8jmG11MuaHVF3z4-1" value="SiteUser" style="rounded=0;whiteSpace=wrap;html=1;" parent="WIyWlLk6GJQsqaUBKTNV-1" vertex="1">
          <mxGeometry x="370" y="300" width="120" height="60" as="geometry" />
        </mxCell>
        <mxCell id="jEUoH8jmG11MuaHVF3z4-2" value="PayRecord" style="rounded=0;whiteSpace=wrap;html=1;" parent="WIyWlLk6GJQsqaUBKTNV-1" vertex="1">
          <mxGeometry x="620" y="300" width="120" height="60" as="geometry" />
        </mxCell>
        <mxCell id="jEUoH8jmG11MuaHVF3z4-3" value="Subcribe" style="rounded=0;whiteSpace=wrap;html=1;" parent="WIyWlLk6GJQsqaUBKTNV-1" vertex="1">
          <mxGeometry x="70" y="295" width="130" height="70" as="geometry" />
        </mxCell>
        <mxCell id="jEUoH8jmG11MuaHVF3z4-15" style="edgeStyle=orthogonalEdgeStyle;rounded=0;orthogonalLoop=1;jettySize=auto;html=1;entryX=1;entryY=0.5;entryDx=0;entryDy=0;endArrow=none;endFill=0;" parent="WIyWlLk6GJQsqaUBKTNV-1" source="jEUoH8jmG11MuaHVF3z4-5" target="jEUoH8jmG11MuaHVF3z4-3" edge="1">
          <mxGeometry relative="1" as="geometry" />
        </mxCell>
        <mxCell id="YG7jVMgY6gMOqJF1la5D-2" value="N" style="edgeLabel;html=1;align=center;verticalAlign=middle;resizable=0;points=[];" vertex="1" connectable="0" parent="jEUoH8jmG11MuaHVF3z4-15">
          <mxGeometry y="-1" relative="1" as="geometry">
            <mxPoint as="offset" />
          </mxGeometry>
        </mxCell>
        <mxCell id="jEUoH8jmG11MuaHVF3z4-5" value="구독" style="rhombus;whiteSpace=wrap;html=1;" parent="WIyWlLk6GJQsqaUBKTNV-1" vertex="1">
          <mxGeometry x="260" y="300" width="60" height="60" as="geometry" />
        </mxCell>
        <mxCell id="jEUoH8jmG11MuaHVF3z4-12" style="edgeStyle=orthogonalEdgeStyle;rounded=0;orthogonalLoop=1;jettySize=auto;html=1;entryX=0;entryY=0.5;entryDx=0;entryDy=0;endArrow=none;endFill=0;" parent="WIyWlLk6GJQsqaUBKTNV-1" source="jEUoH8jmG11MuaHVF3z4-9" target="jEUoH8jmG11MuaHVF3z4-2" edge="1">
          <mxGeometry relative="1" as="geometry" />
        </mxCell>
        <mxCell id="YG7jVMgY6gMOqJF1la5D-4" value="M" style="edgeLabel;html=1;align=center;verticalAlign=middle;resizable=0;points=[];" vertex="1" connectable="0" parent="jEUoH8jmG11MuaHVF3z4-12">
          <mxGeometry x="-0.15" y="-1" relative="1" as="geometry">
            <mxPoint as="offset" />
          </mxGeometry>
        </mxCell>
        <mxCell id="jEUoH8jmG11MuaHVF3z4-9" value="결제" style="rhombus;whiteSpace=wrap;html=1;" parent="WIyWlLk6GJQsqaUBKTNV-1" vertex="1">
          <mxGeometry x="530" y="305" width="50" height="50" as="geometry" />
        </mxCell>
        <mxCell id="jEUoH8jmG11MuaHVF3z4-66" style="edgeStyle=orthogonalEdgeStyle;rounded=0;orthogonalLoop=1;jettySize=auto;html=1;entryX=0;entryY=0;entryDx=0;entryDy=0;" parent="WIyWlLk6GJQsqaUBKTNV-1" source="jEUoH8jmG11MuaHVF3z4-17" target="jEUoH8jmG11MuaHVF3z4-3" edge="1">
          <mxGeometry relative="1" as="geometry" />
        </mxCell>
        <mxCell id="jEUoH8jmG11MuaHVF3z4-17" value="headCount" style="ellipse;whiteSpace=wrap;html=1;rounded=0;" parent="WIyWlLk6GJQsqaUBKTNV-1" vertex="1">
          <mxGeometry x="-20" y="150" width="80" height="80" as="geometry" />
        </mxCell>
        <mxCell id="jEUoH8jmG11MuaHVF3z4-64" style="edgeStyle=orthogonalEdgeStyle;rounded=0;orthogonalLoop=1;jettySize=auto;html=1;entryX=0;entryY=1;entryDx=0;entryDy=0;" parent="WIyWlLk6GJQsqaUBKTNV-1" source="jEUoH8jmG11MuaHVF3z4-19" target="jEUoH8jmG11MuaHVF3z4-3" edge="1">
          <mxGeometry relative="1" as="geometry" />
        </mxCell>
        <mxCell id="jEUoH8jmG11MuaHVF3z4-19" value="office" style="ellipse;whiteSpace=wrap;html=1;rounded=0;" parent="WIyWlLk6GJQsqaUBKTNV-1" vertex="1">
          <mxGeometry x="-90" y="370" width="80" height="80" as="geometry" />
        </mxCell>
        <mxCell id="jEUoH8jmG11MuaHVF3z4-65" style="edgeStyle=orthogonalEdgeStyle;rounded=0;orthogonalLoop=1;jettySize=auto;html=1;entryX=0;entryY=0.5;entryDx=0;entryDy=0;" parent="WIyWlLk6GJQsqaUBKTNV-1" source="jEUoH8jmG11MuaHVF3z4-21" target="jEUoH8jmG11MuaHVF3z4-3" edge="1">
          <mxGeometry relative="1" as="geometry" />
        </mxCell>
        <mxCell id="jEUoH8jmG11MuaHVF3z4-21" value="rank" style="ellipse;whiteSpace=wrap;html=1;rounded=0;" parent="WIyWlLk6GJQsqaUBKTNV-1" vertex="1">
          <mxGeometry x="-100" y="250" width="80" height="80" as="geometry" />
        </mxCell>
        <mxCell id="jEUoH8jmG11MuaHVF3z4-37" style="edgeStyle=orthogonalEdgeStyle;rounded=0;orthogonalLoop=1;jettySize=auto;html=1;entryX=0.5;entryY=0;entryDx=0;entryDy=0;" parent="WIyWlLk6GJQsqaUBKTNV-1" source="jEUoH8jmG11MuaHVF3z4-23" target="jEUoH8jmG11MuaHVF3z4-1" edge="1">
          <mxGeometry relative="1" as="geometry" />
        </mxCell>
        <mxCell id="jEUoH8jmG11MuaHVF3z4-23" value="loginID" style="ellipse;whiteSpace=wrap;html=1;rounded=0;" parent="WIyWlLk6GJQsqaUBKTNV-1" vertex="1">
          <mxGeometry x="390" y="150" width="80" height="80" as="geometry" />
        </mxCell>
        <mxCell id="jEUoH8jmG11MuaHVF3z4-35" style="edgeStyle=orthogonalEdgeStyle;rounded=0;orthogonalLoop=1;jettySize=auto;html=1;entryX=0.25;entryY=1;entryDx=0;entryDy=0;" parent="WIyWlLk6GJQsqaUBKTNV-1" source="jEUoH8jmG11MuaHVF3z4-25" target="jEUoH8jmG11MuaHVF3z4-1" edge="1">
          <mxGeometry relative="1" as="geometry" />
        </mxCell>
        <mxCell id="jEUoH8jmG11MuaHVF3z4-25" value="ticket" style="ellipse;whiteSpace=wrap;html=1;rounded=0;" parent="WIyWlLk6GJQsqaUBKTNV-1" vertex="1">
          <mxGeometry x="290" y="450" width="80" height="80" as="geometry" />
        </mxCell>
        <mxCell id="jEUoH8jmG11MuaHVF3z4-34" style="edgeStyle=orthogonalEdgeStyle;rounded=0;orthogonalLoop=1;jettySize=auto;html=1;entryX=0.75;entryY=1;entryDx=0;entryDy=0;" parent="WIyWlLk6GJQsqaUBKTNV-1" source="jEUoH8jmG11MuaHVF3z4-26" target="jEUoH8jmG11MuaHVF3z4-1" edge="1">
          <mxGeometry relative="1" as="geometry" />
        </mxCell>
        <mxCell id="jEUoH8jmG11MuaHVF3z4-26" value="createDate" style="ellipse;whiteSpace=wrap;html=1;rounded=0;" parent="WIyWlLk6GJQsqaUBKTNV-1" vertex="1">
          <mxGeometry x="490" y="440" width="80" height="80" as="geometry" />
        </mxCell>
        <mxCell id="jEUoH8jmG11MuaHVF3z4-33" style="edgeStyle=orthogonalEdgeStyle;rounded=0;orthogonalLoop=1;jettySize=auto;html=1;entryX=0.5;entryY=1;entryDx=0;entryDy=0;" parent="WIyWlLk6GJQsqaUBKTNV-1" source="jEUoH8jmG11MuaHVF3z4-27" target="jEUoH8jmG11MuaHVF3z4-1" edge="1">
          <mxGeometry relative="1" as="geometry" />
        </mxCell>
        <mxCell id="jEUoH8jmG11MuaHVF3z4-27" value="updateDate" style="ellipse;whiteSpace=wrap;html=1;rounded=0;" parent="WIyWlLk6GJQsqaUBKTNV-1" vertex="1">
          <mxGeometry x="390" y="450" width="80" height="80" as="geometry" />
        </mxCell>
        <mxCell id="jEUoH8jmG11MuaHVF3z4-32" style="edgeStyle=orthogonalEdgeStyle;rounded=0;orthogonalLoop=1;jettySize=auto;html=1;entryX=0.75;entryY=0;entryDx=0;entryDy=0;" parent="WIyWlLk6GJQsqaUBKTNV-1" source="jEUoH8jmG11MuaHVF3z4-28" target="jEUoH8jmG11MuaHVF3z4-1" edge="1">
          <mxGeometry relative="1" as="geometry">
            <Array as="points">
              <mxPoint x="550" y="240" />
              <mxPoint x="460" y="240" />
            </Array>
          </mxGeometry>
        </mxCell>
        <mxCell id="jEUoH8jmG11MuaHVF3z4-28" value="userName" style="ellipse;whiteSpace=wrap;html=1;rounded=0;" parent="WIyWlLk6GJQsqaUBKTNV-1" vertex="1">
          <mxGeometry x="510" y="140" width="80" height="80" as="geometry" />
        </mxCell>
        <mxCell id="jEUoH8jmG11MuaHVF3z4-36" style="edgeStyle=orthogonalEdgeStyle;rounded=0;orthogonalLoop=1;jettySize=auto;html=1;entryX=0.25;entryY=0;entryDx=0;entryDy=0;" parent="WIyWlLk6GJQsqaUBKTNV-1" source="jEUoH8jmG11MuaHVF3z4-29" target="jEUoH8jmG11MuaHVF3z4-1" edge="1">
          <mxGeometry relative="1" as="geometry" />
        </mxCell>
        <mxCell id="jEUoH8jmG11MuaHVF3z4-29" value="userPw" style="ellipse;whiteSpace=wrap;html=1;rounded=0;" parent="WIyWlLk6GJQsqaUBKTNV-1" vertex="1">
          <mxGeometry x="290" y="150" width="80" height="80" as="geometry" />
        </mxCell>
        <mxCell id="jEUoH8jmG11MuaHVF3z4-67" style="edgeStyle=orthogonalEdgeStyle;rounded=0;orthogonalLoop=1;jettySize=auto;html=1;entryX=0.5;entryY=0;entryDx=0;entryDy=0;" parent="WIyWlLk6GJQsqaUBKTNV-1" source="jEUoH8jmG11MuaHVF3z4-38" target="jEUoH8jmG11MuaHVF3z4-3" edge="1">
          <mxGeometry relative="1" as="geometry" />
        </mxCell>
        <mxCell id="jEUoH8jmG11MuaHVF3z4-38" value="period" style="ellipse;whiteSpace=wrap;html=1;rounded=0;" parent="WIyWlLk6GJQsqaUBKTNV-1" vertex="1">
          <mxGeometry x="80" y="110" width="80" height="80" as="geometry" />
        </mxCell>
        <mxCell id="jEUoH8jmG11MuaHVF3z4-63" style="edgeStyle=orthogonalEdgeStyle;rounded=0;orthogonalLoop=1;jettySize=auto;html=1;entryX=0.25;entryY=1;entryDx=0;entryDy=0;" parent="WIyWlLk6GJQsqaUBKTNV-1" source="jEUoH8jmG11MuaHVF3z4-39" target="jEUoH8jmG11MuaHVF3z4-3" edge="1">
          <mxGeometry relative="1" as="geometry" />
        </mxCell>
        <mxCell id="jEUoH8jmG11MuaHVF3z4-39" value="phoneNumber" style="ellipse;whiteSpace=wrap;html=1;rounded=0;" parent="WIyWlLk6GJQsqaUBKTNV-1" vertex="1">
          <mxGeometry x="-50" y="460" width="80" height="80" as="geometry" />
        </mxCell>
        <mxCell id="jEUoH8jmG11MuaHVF3z4-68" style="edgeStyle=orthogonalEdgeStyle;rounded=0;orthogonalLoop=1;jettySize=auto;html=1;entryX=1;entryY=0;entryDx=0;entryDy=0;" parent="WIyWlLk6GJQsqaUBKTNV-1" source="jEUoH8jmG11MuaHVF3z4-40" target="jEUoH8jmG11MuaHVF3z4-3" edge="1">
          <mxGeometry relative="1" as="geometry" />
        </mxCell>
        <mxCell id="jEUoH8jmG11MuaHVF3z4-40" value="storageSize" style="ellipse;whiteSpace=wrap;html=1;rounded=0;" parent="WIyWlLk6GJQsqaUBKTNV-1" vertex="1">
          <mxGeometry x="180" y="130" width="80" height="80" as="geometry" />
        </mxCell>
        <mxCell id="jEUoH8jmG11MuaHVF3z4-62" style="edgeStyle=orthogonalEdgeStyle;rounded=0;orthogonalLoop=1;jettySize=auto;html=1;entryX=0.5;entryY=1;entryDx=0;entryDy=0;" parent="WIyWlLk6GJQsqaUBKTNV-1" source="jEUoH8jmG11MuaHVF3z4-41" target="jEUoH8jmG11MuaHVF3z4-3" edge="1">
          <mxGeometry relative="1" as="geometry" />
        </mxCell>
        <mxCell id="jEUoH8jmG11MuaHVF3z4-41" value="createDate" style="ellipse;whiteSpace=wrap;html=1;rounded=0;" parent="WIyWlLk6GJQsqaUBKTNV-1" vertex="1">
          <mxGeometry x="90" y="530" width="80" height="80" as="geometry" />
        </mxCell>
        <mxCell id="jEUoH8jmG11MuaHVF3z4-53" style="edgeStyle=orthogonalEdgeStyle;rounded=0;orthogonalLoop=1;jettySize=auto;html=1;entryX=0;entryY=0;entryDx=0;entryDy=0;" parent="WIyWlLk6GJQsqaUBKTNV-1" source="jEUoH8jmG11MuaHVF3z4-42" target="jEUoH8jmG11MuaHVF3z4-2" edge="1">
          <mxGeometry relative="1" as="geometry" />
        </mxCell>
        <mxCell id="jEUoH8jmG11MuaHVF3z4-42" value="aid" style="ellipse;whiteSpace=wrap;html=1;rounded=0;" parent="WIyWlLk6GJQsqaUBKTNV-1" vertex="1">
          <mxGeometry x="590" y="90" width="80" height="80" as="geometry" />
        </mxCell>
        <mxCell id="jEUoH8jmG11MuaHVF3z4-59" style="edgeStyle=orthogonalEdgeStyle;rounded=0;orthogonalLoop=1;jettySize=auto;html=1;entryX=0.75;entryY=1;entryDx=0;entryDy=0;" parent="WIyWlLk6GJQsqaUBKTNV-1" source="jEUoH8jmG11MuaHVF3z4-43" target="jEUoH8jmG11MuaHVF3z4-2" edge="1">
          <mxGeometry relative="1" as="geometry" />
        </mxCell>
        <mxCell id="jEUoH8jmG11MuaHVF3z4-43" value="updateDate" style="ellipse;whiteSpace=wrap;html=1;rounded=0;" parent="WIyWlLk6GJQsqaUBKTNV-1" vertex="1">
          <mxGeometry x="660" y="510" width="80" height="80" as="geometry" />
        </mxCell>
        <mxCell id="jEUoH8jmG11MuaHVF3z4-57" style="edgeStyle=orthogonalEdgeStyle;rounded=0;orthogonalLoop=1;jettySize=auto;html=1;entryX=1;entryY=0.75;entryDx=0;entryDy=0;" parent="WIyWlLk6GJQsqaUBKTNV-1" source="jEUoH8jmG11MuaHVF3z4-44" target="jEUoH8jmG11MuaHVF3z4-2" edge="1">
          <mxGeometry relative="1" as="geometry" />
        </mxCell>
        <mxCell id="jEUoH8jmG11MuaHVF3z4-44" value="quantity" style="ellipse;whiteSpace=wrap;html=1;rounded=0;" parent="WIyWlLk6GJQsqaUBKTNV-1" vertex="1">
          <mxGeometry x="810" y="400" width="80" height="80" as="geometry" />
        </mxCell>
        <mxCell id="jEUoH8jmG11MuaHVF3z4-56" style="edgeStyle=orthogonalEdgeStyle;rounded=0;orthogonalLoop=1;jettySize=auto;html=1;entryX=1;entryY=0.25;entryDx=0;entryDy=0;" parent="WIyWlLk6GJQsqaUBKTNV-1" source="jEUoH8jmG11MuaHVF3z4-45" target="jEUoH8jmG11MuaHVF3z4-2" edge="1">
          <mxGeometry relative="1" as="geometry" />
        </mxCell>
        <mxCell id="jEUoH8jmG11MuaHVF3z4-45" value="total" style="ellipse;whiteSpace=wrap;html=1;rounded=0;" parent="WIyWlLk6GJQsqaUBKTNV-1" vertex="1">
          <mxGeometry x="840" y="305" width="80" height="80" as="geometry" />
        </mxCell>
        <mxCell id="jEUoH8jmG11MuaHVF3z4-55" style="edgeStyle=orthogonalEdgeStyle;rounded=0;orthogonalLoop=1;jettySize=auto;html=1;entryX=0.5;entryY=0;entryDx=0;entryDy=0;" parent="WIyWlLk6GJQsqaUBKTNV-1" source="jEUoH8jmG11MuaHVF3z4-46" target="jEUoH8jmG11MuaHVF3z4-2" edge="1">
          <mxGeometry relative="1" as="geometry" />
        </mxCell>
        <mxCell id="jEUoH8jmG11MuaHVF3z4-46" value="partner_user_id" style="ellipse;whiteSpace=wrap;html=1;rounded=0;" parent="WIyWlLk6GJQsqaUBKTNV-1" vertex="1">
          <mxGeometry x="800" y="225" width="80" height="80" as="geometry" />
        </mxCell>
        <mxCell id="jEUoH8jmG11MuaHVF3z4-54" style="edgeStyle=orthogonalEdgeStyle;rounded=0;orthogonalLoop=1;jettySize=auto;html=1;entryX=0.25;entryY=0;entryDx=0;entryDy=0;" parent="WIyWlLk6GJQsqaUBKTNV-1" source="jEUoH8jmG11MuaHVF3z4-47" target="jEUoH8jmG11MuaHVF3z4-2" edge="1">
          <mxGeometry relative="1" as="geometry" />
        </mxCell>
        <mxCell id="jEUoH8jmG11MuaHVF3z4-47" value="tid" style="ellipse;whiteSpace=wrap;html=1;rounded=0;" parent="WIyWlLk6GJQsqaUBKTNV-1" vertex="1">
          <mxGeometry x="730" y="120" width="80" height="80" as="geometry" />
        </mxCell>
        <mxCell id="jEUoH8jmG11MuaHVF3z4-61" style="edgeStyle=orthogonalEdgeStyle;rounded=0;orthogonalLoop=1;jettySize=auto;html=1;entryX=0.75;entryY=1;entryDx=0;entryDy=0;" parent="WIyWlLk6GJQsqaUBKTNV-1" source="jEUoH8jmG11MuaHVF3z4-49" target="jEUoH8jmG11MuaHVF3z4-3" edge="1">
          <mxGeometry relative="1" as="geometry" />
        </mxCell>
        <mxCell id="jEUoH8jmG11MuaHVF3z4-49" value="updateDate" style="ellipse;whiteSpace=wrap;html=1;rounded=0;" parent="WIyWlLk6GJQsqaUBKTNV-1" vertex="1">
          <mxGeometry x="180" y="460" width="80" height="80" as="geometry" />
        </mxCell>
        <mxCell id="jEUoH8jmG11MuaHVF3z4-60" style="edgeStyle=orthogonalEdgeStyle;rounded=0;orthogonalLoop=1;jettySize=auto;html=1;entryX=0.5;entryY=1;entryDx=0;entryDy=0;" parent="WIyWlLk6GJQsqaUBKTNV-1" source="jEUoH8jmG11MuaHVF3z4-51" target="jEUoH8jmG11MuaHVF3z4-2" edge="1">
          <mxGeometry relative="1" as="geometry" />
        </mxCell>
        <mxCell id="jEUoH8jmG11MuaHVF3z4-51" value="createDate" style="ellipse;whiteSpace=wrap;html=1;rounded=0;" parent="WIyWlLk6GJQsqaUBKTNV-1" vertex="1">
          <mxGeometry x="560" y="505" width="80" height="80" as="geometry" />
        </mxCell>
        <mxCell id="jEUoH8jmG11MuaHVF3z4-58" style="edgeStyle=orthogonalEdgeStyle;rounded=0;orthogonalLoop=1;jettySize=auto;html=1;entryX=1;entryY=1;entryDx=0;entryDy=0;" parent="WIyWlLk6GJQsqaUBKTNV-1" source="jEUoH8jmG11MuaHVF3z4-52" target="jEUoH8jmG11MuaHVF3z4-2" edge="1">
          <mxGeometry relative="1" as="geometry" />
        </mxCell>
        <mxCell id="jEUoH8jmG11MuaHVF3z4-52" value="item_name" style="ellipse;whiteSpace=wrap;html=1;rounded=0;" parent="WIyWlLk6GJQsqaUBKTNV-1" vertex="1">
          <mxGeometry x="747" y="470" width="80" height="80" as="geometry" />
        </mxCell>
      </root>
    </mxGraphModel>
  </diagram>
</mxfile>
